<?xml version="1.0" encoding="UTF-8"?>
<svg width="440px" height="40px" viewBox="0 0 440 40" version="1.1" xmlns="http://www.w3.org/2000/svg" xmlns:xlink="http://www.w3.org/1999/xlink">
    <!-- Generator: sketchtool 41.2 (35397) - http://www.bohemiancoding.com/sketch -->
    <title>02BA576C-5E2B-4012-9A66-4788973F93C2</title>
    <desc>Created with sketchtool.</desc>
    <defs></defs>
    <g id="Symbols" stroke="none" stroke-width="1" fill="none" fill-rule="evenodd">
        <g id="sprite_ic_payment">
            <g id="ic_other" transform="translate(407.000000, 16.000000)">
                <path d="M22,7 C23.657,7 25,5.657 25,4 C25,2.343 23.657,1 22,1 C20.343,1 19,2.343 19,4 C19,5.657 20.343,7 22,7 Z" id="Fill-2" fill="#76C2A6"></path>
                <path d="M22,1.5 C20.621,1.5 19.5,2.622 19.5,4 C19.5,5.379 20.621,6.5 22,6.5 C23.379,6.5 24.5,5.379 24.5,4 C24.5,2.622 23.379,1.5 22,1.5 M22,7.5 C20.07,7.5 18.5,5.93 18.5,4 C18.5,2.07 20.07,0.5 22,0.5 C23.93,0.5 25.5,2.07 25.5,4 C25.5,5.93 23.93,7.5 22,7.5" id="Fill-4" fill="#72778A"></path>
                <path d="M13,7 C14.657,7 16,5.657 16,4 C16,2.343 14.657,1 13,1 C11.343,1 10,2.343 10,4 C10,5.657 11.343,7 13,7" id="Fill-6" fill="#90DBC0"></path>
                <path d="M13,1.5 C11.621,1.5 10.5,2.622 10.5,4 C10.5,5.379 11.621,6.5 13,6.5 C14.379,6.5 15.5,5.379 15.5,4 C15.5,2.622 14.379,1.5 13,1.5 M13,7.5 C11.07,7.5 9.5,5.93 9.5,4 C9.5,2.07 11.07,0.5 13,0.5 C14.93,0.5 16.5,2.07 16.5,4 C16.5,5.93 14.93,7.5 13,7.5" id="Fill-8" fill="#72778A"></path>
                <path d="M4,7 C5.657,7 7,5.657 7,4 C7,2.343 5.657,1 4,1 C2.343,1 1,2.343 1,4 C1,5.657 2.343,7 4,7" id="Fill-10" fill="#B4EBD1"></path>
                <path d="M4,1.5 C2.621,1.5 1.5,2.622 1.5,4 C1.5,5.379 2.621,6.5 4,6.5 C5.379,6.5 6.5,5.379 6.5,4 C6.5,2.622 5.379,1.5 4,1.5 M4,7.5 C2.07,7.5 0.5,5.93 0.5,4 C0.5,2.07 2.07,0.5 4,0.5 C5.93,0.5 7.5,2.07 7.5,4 C7.5,5.93 5.93,7.5 4,7.5" id="Fill-12" fill="#72778A"></path>
            </g>
            <g id="ic_cdma" transform="translate(133.000000, 7.000000)">
                <path d="M14.5,21.7285 L13.5,21.7285 C13.224,21.7285 13,21.5045 13,21.2285 C13,20.9525 13.224,20.7285 13.5,20.7285 L14.5,20.7285 C14.776,20.7285 15,20.9525 15,21.2285 C15,21.5045 14.776,21.7285 14.5,21.7285" id="Fill-14" fill="#72778A"></path>
                <path d="M13.5,24 L12.5,24 C12.224,24 12,23.776 12,23.5 C12,23.224 12.224,23 12.5,23 L13.5,23 C13.776,23 14,23.224 14,23.5 C14,23.776 13.776,24 13.5,24" id="Fill-16" fill="#72778A"></path>
                <path d="M13.5,19.457 L12.5,19.457 C12.224,19.457 12,19.233 12,18.957 C12,18.681 12.224,18.457 12.5,18.457 L13.5,18.457 C13.776,18.457 14,18.681 14,18.957 C14,19.233 13.776,19.457 13.5,19.457" id="Fill-18" fill="#72778A"></path>
                <path d="M13.5,7.5425 L12.5,7.5425 C12.224,7.5425 12,7.3185 12,7.0425 C12,6.7665 12.224,6.5425 12.5,6.5425 L13.5,6.5425 C13.776,6.5425 14,6.7665 14,7.0425 C14,7.3185 13.776,7.5425 13.5,7.5425" id="Fill-20" fill="#72778A"></path>
                <path d="M14.5,5.2715 L13.5,5.2715 C13.224,5.2715 13,5.0475 13,4.7715 C13,4.4955 13.224,4.2715 13.5,4.2715 L14.5,4.2715 C14.776,4.2715 15,4.4955 15,4.7715 C15,5.0475 14.776,5.2715 14.5,5.2715" id="Fill-22" fill="#72778A"></path>
                <path d="M13.5,3 L12.5,3 C12.224,3 12,2.776 12,2.5 C12,2.224 12.224,2 12.5,2 L13.5,2 C13.776,2 14,2.224 14,2.5 C14,2.776 13.776,3 13.5,3" id="Fill-24" fill="#72778A"></path>
                <path d="M7.381,25 L6.868,25 C3.413,25 1,22.905 1,19.906 L1,6.094 C1,3.095 3.413,1 6.868,1 L7.381,1 C8.825,1 10,2.157 10,3.58 L10,5.963 C10,7.386 8.825,8.543 7.381,8.543 L6.638,8.543 C6.344,8.543 6.105,8.778 6.105,9.067 L6.105,16.933 C6.105,17.222 6.344,17.457 6.638,17.457 L7.381,17.457 C8.825,17.457 10,18.614 10,20.037 L10,22.42 C10,23.843 8.825,25 7.381,25" id="Fill-26" fill="#FFE2A2"></path>
                <path d="M6.8677,1.5 C3.7067,1.5 1.4997,3.389 1.4997,6.094 L1.4997,19.906 C1.4997,22.611 3.7067,24.5 6.8677,24.5 L7.3807,24.5 C8.5497,24.5 9.4997,23.566 9.4997,22.42 L9.4997,20.037 C9.4997,18.891 8.5497,17.957 7.3807,17.957 L6.6377,17.957 C6.0687,17.957 5.6047,17.497 5.6047,16.933 L5.6047,9.067 C5.6047,8.502 6.0687,8.043 6.6377,8.043 L7.3807,8.043 C8.5497,8.043 9.4997,7.11 9.4997,5.963 L9.4997,3.58 C9.4997,2.433 8.5497,1.5 7.3807,1.5 L6.8677,1.5 Z M7.3807,25.5 L6.8677,25.5 C3.1187,25.5 0.4997,23.2 0.4997,19.906 L0.4997,6.094 C0.4997,2.8 3.1187,0.5 6.8677,0.5 L7.3807,0.5 C9.1007,0.5 10.4997,1.882 10.4997,3.58 L10.4997,5.963 C10.4997,7.661 9.1007,9.043 7.3807,9.043 L6.6377,9.043 L6.6047,16.933 L7.3807,16.957 C9.1007,16.957 10.4997,18.339 10.4997,20.037 L10.4997,22.42 C10.4997,24.118 9.1007,25.5 7.3807,25.5 L7.3807,25.5 Z" id="Fill-28" fill="#72778A"></path>
                <path d="M7.3763,17.9568 L6.6613,17.9568 C7.1743,18.5058 7.4953,19.2328 7.4953,20.0368 L7.4953,22.4198 C7.4953,23.2168 7.1793,23.9378 6.6733,24.4858 C6.7383,24.4868 6.7973,24.4998 6.8623,24.4998 L7.3763,24.4998 C8.5443,24.4998 9.4953,23.5658 9.4953,22.4198 L9.4953,20.0368 C9.4953,18.8908 8.5443,17.9568 7.3763,17.9568" id="Fill-30" fill="#FEBA7C"></path>
                <path d="M7.3763,1.4998 L6.8623,1.4998 C6.7973,1.4998 6.7383,1.5128 6.6733,1.5138 C7.1793,2.0618 7.4953,2.7828 7.4953,3.5798 L7.4953,5.9628 C7.4953,6.7668 7.1743,7.4938 6.6613,8.0428 L7.3763,8.0428 C8.5443,8.0428 9.4953,7.1088 9.4953,5.9628 L9.4953,3.5798 C9.4953,2.4338 8.5443,1.4998 7.3763,1.4998" id="Fill-32" fill="#FEBA7C"></path>
            </g>
            <g id="ic_distribution" transform="translate(367.000000, 8.000000)">
                <polygon id="Fill-34" fill="#FAEEDE" points="0.892 18.6962 1.525 16.3332 14.705 19.8642 19.664 1.2222 23.78 1.2222 23.78 3.2222 21.234 3.2222 15.99 22.7672"></polygon>
                <polygon id="Fill-36" fill="#B89EA2" points="4.0991 17.021 6.4281 8.328 15.1211 10.658 12.7921 19.351"></polygon>
                <polygon id="Fill-38" fill="#CFA1A8" points="3.1206 16.7574 4.6736 10.9614 10.4696 12.5154 8.9166 18.3104"></polygon>
                <polygon id="Fill-40" fill="#CFA1A8" points="11.2575 9.6194 12.0335 6.7224 14.9325 7.4984 14.1545 10.3954"></polygon>
                <path d="M15.4364,23.7205 C16.5414,23.7205 17.4364,22.8255 17.4364,21.7205 C17.4364,20.6155 16.5414,19.7205 15.4364,19.7205 C14.3314,19.7205 13.4364,20.6155 13.4364,21.7205 C13.4364,22.8255 14.3314,23.7205 15.4364,23.7205" id="Fill-42" fill="#F1D8BE"></path>
                <path d="M23.2794,2.7228 L20.8514,2.7228 L20.6524,3.4638 L16.3744,19.4068 C16.0844,19.2888 15.7684,19.2208 15.4364,19.2208 C15.4214,19.2208 15.4074,19.2248 15.3934,19.2248 L20.0484,1.7228 L23.2794,1.7228 L23.2794,2.7228 Z M15.4364,23.2208 C14.6094,23.2208 13.9364,22.5478 13.9364,21.7208 C13.9364,20.8938 14.6094,20.2208 15.4364,20.2208 C16.2634,20.2208 16.9364,20.8938 16.9364,21.7208 C16.9364,22.5478 16.2634,23.2208 15.4364,23.2208 L15.4364,23.2208 Z M1.8784,16.9448 L13.5674,20.0768 C13.2404,20.4498 13.0254,20.9158 12.9654,21.4338 L1.5034,18.3428 L1.8784,16.9448 Z M5.0274,11.5748 L9.8564,12.8688 L8.5624,17.6978 L3.7324,16.4038 L5.0274,11.5748 Z M6.7824,8.9408 L14.5094,11.0108 L12.4384,18.7378 L9.5284,17.9578 L11.0814,12.1608 L6.2644,10.8708 L6.7824,8.9408 Z M12.3874,7.3338 L14.3194,7.8518 L13.8014,9.7838 L11.8704,9.2658 L12.3874,7.3338 Z M19.2794,0.7228 L14.3514,19.2518 L13.4044,18.9988 L15.7344,10.3038 L14.7674,10.0448 L15.5444,7.1448 L11.6804,6.1088 L10.9034,9.0088 L6.0754,7.7158 L5.2984,10.6118 L4.3194,10.3498 L2.7664,16.1478 L1.1714,15.7208 L0.2794,19.0488 L13.0724,22.4988 C13.4014,23.4948 14.3304,24.2208 15.4364,24.2208 C16.8154,24.2208 17.9364,23.0998 17.9364,21.7208 C17.9364,21.0568 17.6724,20.4558 17.2484,20.0078 L21.6184,3.7228 L24.2794,3.7228 L24.2794,0.7228 L19.2794,0.7228 Z" id="Fill-44" fill="#72778A"></path>
            </g>
            <g id="ic_mobile" transform="translate(12.000000, 6.000000)">
                <path d="M14,27 L2,27 C1.448,27 1,26.552 1,26 L1,2 C1,1.448 1.448,1 2,1 L14,1 C14.552,1 15,1.448 15,2 L15,26 C15,26.552 14.552,27 14,27" id="Fill-46" fill="#C2CEE8"></path>
                <path d="M2,1.5 C1.724,1.5 1.5,1.724 1.5,2 L1.5,26 C1.5,26.275 1.724,26.5 2,26.5 L14,26.5 C14.276,26.5 14.5,26.275 14.5,26 L14.5,2 C14.5,1.724 14.276,1.5 14,1.5 L2,1.5 Z M14,27.5 L2,27.5 C1.173,27.5 0.5,26.827 0.5,26 L0.5,2 C0.5,1.173 1.173,0.5 2,0.5 L14,0.5 C14.827,0.5 15.5,1.173 15.5,2 L15.5,26 C15.5,26.827 14.827,27.5 14,27.5 L14,27.5 Z" id="Fill-48" fill="#72778A"></path>
                <path d="M14,1.4976 L2,1.4976 C1.724,1.4976 1.5,1.7216 1.5,1.9976 L1.5,16.9276 L14.5,3.9276 L14.5,1.9976 C14.5,1.7216 14.276,1.4976 14,1.4976" id="Fill-50" fill="#E4F3FE"></path>
                <path d="M1.5,18.9976 C1.5,19.2736 1.724,19.4976 2,19.4976 L14,19.4976 C14.276,19.4976 14.5,19.2736 14.5,18.9976 L14.5,3.9276 L1.5,16.9276 L1.5,18.9976 Z" id="Fill-52" fill="#C5E4F9"></path>
                <path d="M7.2835,26.5 L13.9995,26.5 C14.2755,26.5 14.4995,26.276 14.4995,26 L14.4995,19.284 L7.2835,26.5 Z" id="Fill-54" fill="#A1B2D8"></path>
                <path d="M9.5,23.4999 C9.5,22.6719 8.828,21.9999 8,21.9999 C7.172,21.9999 6.5,22.6719 6.5,23.4999 C6.5,24.3279 7.172,24.9999 8,24.9999 C8.828,24.9999 9.5,24.3279 9.5,23.4999" id="Fill-56" fill="#EBD0BA"></path>
                <path d="M8,22.5 C7.449,22.5 7,22.948 7,23.5 C7,24.052 7.449,24.5 8,24.5 C8.551,24.5 9,24.052 9,23.5 C9,22.948 8.551,22.5 8,22.5 M8,25.5 C6.897,25.5 6,24.603 6,23.5 C6,22.397 6.897,21.5 8,21.5 C9.103,21.5 10,22.397 10,23.5 C10,24.603 9.103,25.5 8,25.5" id="Fill-58" fill="#72778A"></path>
            </g>
            <g id="ic_communal" transform="translate(51.000000, 6.000000)">
                <path d="M3.748,3.9028 C3.575,3.9028 3.407,3.8128 3.314,3.6528 L2.819,2.7948 C2.681,2.5558 2.763,2.2498 3.002,2.1118 C3.241,1.9738 3.547,2.0558 3.686,2.2948 L4.181,3.1528 C4.319,3.3918 4.237,3.6978 3.998,3.8358 C3.919,3.8818 3.833,3.9028 3.748,3.9028" id="Fill-60" fill="#72778A"></path>
                <path d="M14.252,3.9028 C14.167,3.9028 14.081,3.8818 14.002,3.8358 C13.763,3.6978 13.681,3.3918 13.819,3.1528 L14.314,2.2948 C14.453,2.0558 14.758,1.9738 14.998,2.1118 C15.237,2.2498 15.319,2.5558 15.181,2.7948 L14.686,3.6528 C14.593,3.8128 14.425,3.9028 14.252,3.9028" id="Fill-62" fill="#72778A"></path>
                <path d="M9,2.4956 C8.724,2.4956 8.5,2.2716 8.5,1.9956 L8.5,1.0046 C8.5,0.7286 8.724,0.5046 9,0.5046 C9.276,0.5046 9.5,0.7286 9.5,1.0046 L9.5,1.9956 C9.5,2.2716 9.276,2.4956 9,2.4956" id="Fill-64" fill="#72778A"></path>
                <path d="M11.9733,23.5003 L6.0263,23.5003 C6.0263,23.5003 6.0983,25.0003 6.0983,25.4183 C6.0983,25.8363 6.7343,27.1013 6.7343,27.1013 C6.7993,27.3213 7.0363,27.5003 7.2643,27.5003 L10.7363,27.5003 C10.9633,27.5003 11.2013,27.3183 11.2653,27.1013 C11.2653,27.1013 11.9023,25.8363 11.9023,25.4183 C11.9023,25.0003 11.9733,23.5003 11.9733,23.5003" id="Fill-66" fill="#D4E0E8"></path>
                <path d="M6.5498,24 C6.5708,24.481 6.5978,25.158 6.5978,25.419 C6.6048,25.591 6.8778,26.273 7.1808,26.877 L7.2708,27.002 L10.7488,26.958 L10.8188,26.877 C11.1228,26.272 11.3948,25.591 11.4018,25.417 C11.4018,25.157 11.4288,24.481 11.4498,24 L6.5498,24 Z M10.7358,28.001 L7.2638,28.001 C6.8168,28.001 6.3828,27.675 6.2548,27.243 C6.0808,26.914 5.5978,25.902 5.5978,25.419 C5.5978,25.006 5.5278,23.523 5.5278,23.523 L5.5028,23 L12.4978,23 L12.4728,23.523 C12.4728,23.524 12.4018,25.006 12.4018,25.419 C12.4018,25.902 11.9198,26.914 11.7128,27.326 C11.6178,27.675 11.1838,28.001 10.7358,28.001 L10.7358,28.001 Z" id="Fill-68" fill="#72778A"></path>
                <path d="M17,12.0003 C17,7.5823 13.418,4.0003 9,4.0003 C4.582,4.0003 1,7.5823 1,12.0003 C1,14.4973 2.673,16.0603 3.937,18.1943 C4.091,18.4543 6.027,23.5003 6.027,23.5003 L11.973,23.5003 L14.063,18.1943 C15.105,15.8893 17,14.4973 17,12.0003" id="Fill-70" fill="#FFF0A7"></path>
                <path d="M6.3706,23 L11.6326,23 L13.5986,18.011 C13.9986,17.124 14.4926,16.399 14.9696,15.698 C15.7906,14.492 16.4996,13.45 16.4996,12 C16.4996,7.865 13.1356,4.5 8.9996,4.5 C4.8646,4.5 1.4996,7.865 1.4996,12 C1.4996,13.699 2.3466,14.928 3.3266,16.351 C3.6766,16.859 4.0356,17.38 4.3666,17.939 C4.5156,18.19 5.7336,21.343 6.3706,23 M11.9736,24 L6.0266,24 C5.8196,24 5.6346,23.872 5.5596,23.679 C4.8366,21.794 3.6376,18.704 3.4996,18.438 C3.1866,17.91 2.8406,17.408 2.5026,16.918 C1.4736,15.423 0.4996,14.01 0.4996,12 C0.4996,7.313 4.3126,3.5 8.9996,3.5 C13.6866,3.5 17.4996,7.313 17.4996,12 C17.4996,13.758 16.6336,15.03 15.7966,16.261 C15.3426,16.927 14.8736,17.615 14.5186,18.4 L12.4386,23.684 C12.3636,23.874 12.1786,24 11.9736,24" id="Fill-72" fill="#72778A"></path>
                <path d="M9,14.5003 C10.105,14.5003 11,13.6053 11,12.5003 C11,11.3953 10.105,10.5003 9,10.5003 C7.895,10.5003 7,11.3953 7,12.5003 C7,13.6053 7.895,14.5003 9,14.5003" id="Fill-74" fill="#FEFCE7"></path>
                <path d="M9,11.0005 C8.173,11.0005 7.5,11.6735 7.5,12.5005 C7.5,13.3275 8.173,14.0005 9,14.0005 C9.827,14.0005 10.5,13.3275 10.5,12.5005 C10.5,11.6735 9.827,11.0005 9,11.0005 M9,15.0005 C7.622,15.0005 6.5,13.8785 6.5,12.5005 C6.5,11.1225 7.622,10.0005 9,10.0005 C10.378,10.0005 11.5,11.1225 11.5,12.5005 C11.5,13.8785 10.378,15.0005 9,15.0005" id="Fill-76" fill="#72778A"></path>
                <path d="M9,24 C8.724,24 8.5,23.776 8.5,23.5 L8.5,14.5 C8.5,14.224 8.724,14 9,14 C9.276,14 9.5,14.224 9.5,14.5 L9.5,23.5 C9.5,23.776 9.276,24 9,24" id="Fill-78" fill="#72778A"></path>
                <path d="M12.9902,24 L5.0102,24 C4.7332,24 4.5102,23.776 4.5102,23.5 C4.5102,23.224 4.7332,23 5.0102,23 L12.9902,23 C13.2662,23 13.4902,23.224 13.4902,23.5 C13.4902,23.776 13.2662,24 12.9902,24" id="Fill-80" fill="#72778A"></path>
                <path d="M11.895,26 L6.105,26 C5.829,26 5.605,25.776 5.605,25.5 C5.605,25.224 5.829,25 6.105,25 L11.895,25 C12.171,25 12.395,25.224 12.395,25.5 C12.395,25.776 12.171,26 11.895,26" id="Fill-82" fill="#72778A"></path>
            </g>
            <g id="ic_internet" transform="translate(87.000000, 7.000000)">
                <path d="M6.2499,13 C6.2499,7.908 8.9549,3.451 12.9999,1 C6.3729,1 0.9999,6.373 0.9999,13 C0.9999,19.627 6.3729,25 12.9999,25 C8.9549,22.549 6.2499,18.092 6.2499,13" id="Fill-84" fill="#B7DCCB"></path>
                <path d="M13,25 C8.955,22.549 6.25,18.092 6.25,13 C6.25,7.908 8.955,3.451 13,1 C17.045,3.451 19.75,7.908 19.75,13 C19.75,18.092 17.045,22.549 13,25" id="Fill-86" fill="#96CFBB"></path>
                <path d="M13,1 C17.045,3.451 19.75,7.908 19.75,13 C19.75,18.092 17.045,22.549 13,25 L13,25 C19.627,25 25,19.627 25,13 C25,6.373 19.627,1 13,1" id="Fill-88" fill="#76C2A6"></path>
                <path d="M21.2382,21.007 C20.5532,20.374 19.7202,19.836 18.7802,19.406 C19.6642,17.597 20.1642,15.594 20.2342,13.5 L24.4742,13.5 C24.3482,16.413 23.1432,19.047 21.2382,21.007 L21.2382,21.007 Z M14.8312,24.331 C16.2482,23.198 17.4172,21.827 18.3052,20.294 C19.1512,20.674 19.9002,21.145 20.5072,21.692 C18.9302,23.056 16.9782,23.986 14.8312,24.331 L14.8312,24.331 Z M7.6952,20.294 C8.5822,21.827 9.7512,23.198 11.1682,24.331 C9.0212,23.986 7.0692,23.056 5.4922,21.692 C6.1002,21.145 6.8482,20.674 7.6952,20.294 L7.6952,20.294 Z M1.5252,13.5 L5.7662,13.5 C5.8362,15.594 6.3362,17.597 7.2192,19.406 C6.2792,19.836 5.4462,20.374 4.7622,21.007 C2.8562,19.047 1.6512,16.413 1.5252,13.5 L1.5252,13.5 Z M4.7612,4.994 C5.4462,5.627 6.2792,6.165 7.2192,6.596 C6.3362,8.404 5.8362,10.408 5.7662,12.5 L1.5252,12.5 C1.6512,9.588 2.8562,6.954 4.7612,4.994 L4.7612,4.994 Z M11.1692,1.67 C9.7512,2.803 8.5822,4.174 7.6952,5.707 C6.8482,5.327 6.1002,4.856 5.4922,4.309 C7.0692,2.944 9.0212,2.015 11.1692,1.67 L11.1692,1.67 Z M18.3052,5.707 C17.4172,4.174 16.2482,2.803 14.8312,1.67 C16.9782,2.015 18.9302,2.944 20.5082,4.309 C19.9002,4.856 19.1512,5.327 18.3052,5.707 L18.3052,5.707 Z M13.5002,12.5 L13.5002,7.773 C15.0472,7.724 16.5202,7.448 17.8312,6.981 C18.6682,8.671 19.1482,10.54 19.2192,12.5 L13.5002,12.5 Z M13.5002,18.228 L13.5002,13.5 L19.2192,13.5 C19.1482,15.461 18.6682,17.33 17.8312,19.02 C16.5202,18.553 15.0472,18.278 13.5002,18.228 L13.5002,18.228 Z M13.5002,19.228 C14.8612,19.276 16.1712,19.52 17.3442,19.92 C16.3862,21.532 15.0862,22.935 13.5002,24.048 L13.5002,19.228 Z M12.5002,13.5 L12.5002,18.228 C10.9522,18.278 9.4802,18.553 8.1692,19.02 C7.3322,17.33 6.8522,15.461 6.7812,13.5 L12.5002,13.5 Z M8.6552,6.081 C9.6142,4.469 10.9132,3.065 12.5002,1.953 L12.5002,6.773 C11.1382,6.725 9.8292,6.481 8.6552,6.081 L8.6552,6.081 Z M12.5002,7.773 L12.5002,12.5 L6.7812,12.5 C6.8522,10.54 7.3322,8.671 8.1682,6.981 C9.4802,7.448 10.9522,7.724 12.5002,7.773 L12.5002,7.773 Z M17.3442,6.081 C16.1712,6.481 14.8612,6.725 13.5002,6.773 L13.5002,1.953 C15.0862,3.065 16.3862,4.469 17.3442,6.081 L17.3442,6.081 Z M8.6552,19.92 C9.8292,19.52 11.1382,19.276 12.5002,19.228 L12.5002,24.048 C10.9132,22.935 9.6142,21.532 8.6552,19.92 L8.6552,19.92 Z M24.4742,12.5 L20.2342,12.5 C20.1642,10.408 19.6632,8.404 18.7802,6.596 C19.7202,6.165 20.5542,5.627 21.2382,4.994 C23.1442,6.954 24.3482,9.588 24.4742,12.5 L24.4742,12.5 Z M21.6442,3.993 C21.6282,3.972 21.6202,3.948 21.6002,3.929 C21.5762,3.907 21.5472,3.897 21.5202,3.88 C19.2852,1.791 16.2942,0.501 13.0012,0.501 L12.9992,0.501 C9.7052,0.501 6.7142,1.791 4.4792,3.881 C4.4522,3.897 4.4232,3.907 4.4002,3.929 C4.3802,3.948 4.3712,3.972 4.3552,3.993 C1.9842,6.269 0.5002,9.462 0.5002,13 C0.5002,16.539 1.9842,19.732 4.3552,22.008 C4.3712,22.029 4.3802,22.053 4.4002,22.072 C4.4242,22.095 4.4542,22.105 4.4812,22.122 C6.7162,24.211 9.7072,25.5 13.0002,25.5 C16.2922,25.5 19.2812,24.212 21.5162,22.125 C21.5442,22.107 21.5752,22.095 21.6002,22.072 C21.6202,22.053 21.6282,22.029 21.6452,22.008 C24.0152,19.732 25.5002,16.539 25.5002,13 C25.5002,9.462 24.0152,6.269 21.6442,3.993 L21.6442,3.993 Z" id="Fill-90" fill="#72778A"></path>
            </g>
            <g id="ic_tv" transform="translate(167.000000, 7.000000)">
                <path d="M25.0006,3.8476 L17.5656,3.8476 L2.5576,18.8556 L25.4996,18.8556 L25.4996,4.3476 C25.4996,4.0756 25.2766,3.8476 25.0006,3.8476" id="Fill-92" fill="#C5E4F9"></path>
                <path d="M0.9994,3.8476 C0.7164,3.8476 0.5004,4.0716 0.5004,4.3476 L0.5004,18.8556 L2.5574,18.8556 L17.5654,3.8476 L0.9994,3.8476 Z" id="Fill-94" fill="#E4F3FE"></path>
                <path d="M0.5,18.8552 L0.5,21.3472 C0.5,21.6202 0.724,21.8472 0.999,21.8472 L16.065,21.8472 L19.057,18.8552 L0.5,18.8552 Z" id="Fill-96" fill="#FAEEDE"></path>
                <path d="M19.0574,18.8552 L16.0654,21.8472 L25.0004,21.8472 C25.2844,21.8472 25.5004,21.6232 25.5004,21.3472 L25.5004,18.8552 L19.0574,18.8552 Z" id="Fill-98" fill="#F1D8BE"></path>
                <path d="M10.0237,25.8476 L10.8647,21.9516 C10.8737,21.9086 10.9467,21.8476 11.0027,21.8476 L14.9987,21.8476 C15.0527,21.8476 15.1267,21.9026 15.1367,21.9516 L15.9777,25.8476 L10.0237,25.8476 Z" id="Fill-100" fill="#F1D8BE"></path>
                <path d="M25,18.3555 L1,18.3555 L1,4.3475 L25,4.3475 L25,18.3555 Z M1,21.3455 L1,19.3555 L25,19.3555 L25,21.3475 L1,21.3455 Z M10.643,25.3475 L11.29,22.3475 L14.71,22.3475 L15.358,25.3475 L10.643,25.3475 Z M25,3.3475 L14.209,3.3475 L16.55,1.0055 C16.746,0.8105 16.746,0.4945 16.55,0.2985 C16.355,0.1035 16.039,0.1035 15.843,0.2985 L13.002,3.1405 L11.55,1.6895 C11.355,1.4945 11.039,1.4945 10.843,1.6895 C10.648,1.8845 10.648,2.2015 10.843,2.3965 L11.795,3.3475 L1,3.3475 C0.448,3.3475 0,3.7965 0,4.3475 L0,18.3555 L0,19.3555 L0,21.3475 C0,21.8995 0.448,22.3475 1,22.3475 L10.267,22.3475 L9.62,25.3475 L8.5,25.3475 C8.224,25.3475 8,25.5715 8,25.8475 C8,26.1245 8.224,26.3475 8.5,26.3475 L17.5,26.3475 C17.776,26.3475 18,26.1245 18,25.8475 C18,25.5715 17.776,25.3475 17.5,25.3475 L16.381,25.3475 L15.734,22.3475 L25,22.3475 C25.561,22.3475 26,21.9085 26,21.3475 L26,19.3555 L26,18.3555 L26,4.3475 C26,3.7965 25.552,3.3475 25,3.3475 L25,3.3475 Z" id="Fill-102" fill="#72778A"></path>
            </g>
            <g id="ic_bank" transform="translate(205.000000, 3.000000)">
                <polygon id="Fill-104" fill="#FAEEDE" points="2.5 28 15 28 15 25 2.5 25"></polygon>
                <polygon id="Fill-106" fill="#F1D8BE" points="15 28 27.5 28 27.5 25 15 25"></polygon>
                <path d="M14.5849,1.2885 L1.0469,10.7115 C0.8139,10.8735 0.8559,10.9995 1.1309,10.9995 L14.9999,10.9995 L14.9999,1.1685 C14.8499,1.1685 14.6999,1.2085 14.5849,1.2885" id="Fill-107" fill="#FAEEDE"></path>
                <path d="M28.952,10.7115 L15.414,1.2885 C15.356,1.2485 15.29,1.2185 15.219,1.1985 C15.156,1.1805 15.09,1.1735 15.024,1.1715 C15.016,1.1715 15.008,1.1685 15,1.1685 L15,11.0005 L28.868,11.0005 C29.152,11.0005 29.181,10.8705 28.952,10.7115" id="Fill-108" fill="#F1D8BE"></path>
                <polygon id="Fill-109" fill="#F1D8BE" points="4.5 13.001 25.5 13.001 25.5 11.001 4.5 11.001"></polygon>
                <polygon id="Fill-110" fill="#F1D8BE" points="5.5 15 10.5 15 10.5 13 5.5 13"></polygon>
                <polygon id="Fill-111" fill="#FAEEDE" points="6.5 23 9.5 23 9.5 15 6.5 15"></polygon>
                <polygon id="Fill-112" fill="#F1D8BE" points="13.5 23 16.5 23 16.5 15 13.5 15"></polygon>
                <polygon id="Fill-113" fill="#E3C3A3" points="20.5 23 23.5 23 23.5 15 20.5 15"></polygon>
                <polygon id="Fill-114" fill="#F1D8BE" points="12.5 15 17.5 15 17.5 13 12.5 13"></polygon>
                <polygon id="Fill-115" fill="#F1D8BE" points="19.5 15 24.5 15 24.5 13 19.5 13"></polygon>
                <polygon id="Fill-116" fill="#F1D8BE" points="5.5 25 10.5 25 10.5 23 5.5 23"></polygon>
                <polygon id="Fill-117" fill="#F1D8BE" points="12.5 25 17.5 25 17.5 23 12.5 23"></polygon>
                <polygon id="Fill-118" fill="#F1D8BE" points="19.5 25 24.5 25 24.5 23 19.5 23"></polygon>
                <path d="M2.2271,10.499 L14.8711,1.699 C14.9291,1.658 15.0701,1.658 15.1281,1.699 L27.7711,10.5 L2.2271,10.499 Z M25.0001,12.501 L24.5051,12.501 C24.5031,12.501 24.5021,12.5 24.5001,12.5 L19.5001,12.5 C19.4981,12.5 19.4971,12.501 19.4951,12.501 L17.5051,12.501 C17.5031,12.501 17.5021,12.5 17.5001,12.5 L12.5001,12.5 C12.4981,12.5 12.4971,12.501 12.4951,12.501 L10.5051,12.501 C10.5041,12.501 10.5021,12.5 10.5001,12.5 L5.5001,12.5 C5.4991,12.5 5.4971,12.501 5.4961,12.501 L5.0001,12.501 L5.0001,11.501 L25.0001,11.501 L25.0001,12.501 Z M24.0001,14.5 L23.5001,14.5 L20.5001,14.5 L20.0001,14.5 L20.0001,13.501 L24.0001,13.501 L24.0001,14.5 Z M21.0001,22.5 L23.0001,22.5 L23.0001,15.5 L21.0001,15.5 L21.0001,22.5 Z M20.0001,24.5 L20.0001,23.5 L20.5001,23.5 L23.5001,23.5 L24.0001,23.5 L24.0001,24.5 L20.0001,24.5 Z M27.0001,27.5 L3.0001,27.5 L3.0001,25.5 L5.5001,25.5 L10.5001,25.5 L12.5001,25.5 L17.5001,25.5 L19.5001,25.5 L24.5001,25.5 L27.0001,25.5 L27.0001,27.5 Z M7.0001,22.5 L9.0001,22.5 L9.0001,15.5 L7.0001,15.5 L7.0001,22.5 Z M10.0001,14.5 L9.5001,14.5 L6.5001,14.5 L6.0001,14.5 L6.0001,13.501 L10.0001,13.501 L10.0001,14.5 Z M13.5001,23.5 L16.5001,23.5 L17.0001,23.5 L17.0001,24.5 L13.0001,24.5 L13.0001,23.5 L13.5001,23.5 Z M14.0001,22.5 L16.0001,22.5 L16.0001,15.5 L14.0001,15.5 L14.0001,22.5 Z M17.0001,14.5 L16.5001,14.5 L13.5001,14.5 L13.0001,14.5 L13.0001,13.501 L17.0001,13.501 L17.0001,14.5 Z M19.5001,15.5 L20.0001,15.5 L20.0001,22.5 L19.5001,22.5 C19.2241,22.5 19.0001,22.724 19.0001,23 L19.0001,24.5 L18.0001,24.5 L18.0001,23 C18.0001,22.724 17.7761,22.5 17.5001,22.5 L17.0001,22.5 L17.0001,15.5 L17.5001,15.5 C17.7761,15.5 18.0001,15.276 18.0001,15 L18.0001,13.501 L19.0001,13.501 L19.0001,15 C19.0001,15.276 19.2241,15.5 19.5001,15.5 L19.5001,15.5 Z M12.5001,15.5 L13.0001,15.5 L13.0001,22.5 L12.5001,22.5 C12.2241,22.5 12.0001,22.724 12.0001,23 L12.0001,24.5 L11.0001,24.5 L11.0001,23 C11.0001,22.724 10.7771,22.5 10.5001,22.5 L10.0001,22.5 L10.0001,15.5 L10.5001,15.5 C10.7771,15.5 11.0001,15.276 11.0001,15 L11.0001,13.501 L12.0001,13.501 L12.0001,15 C12.0001,15.276 12.2241,15.5 12.5001,15.5 L12.5001,15.5 Z M6.0001,23.5 L6.5001,23.5 L9.5001,23.5 L10.0001,23.5 L10.0001,24.5 L6.0001,24.5 L6.0001,23.5 Z M29.2371,10.301 L15.7001,0.878 C15.2951,0.597 14.7061,0.596 14.3001,0.878 L14.2991,0.878 L0.7611,10.301 C0.3311,10.6 0.3801,10.936 0.4211,11.067 C0.4621,11.197 0.6131,11.5 1.1311,11.5 L4.0001,11.5 L4.0001,13.001 C4.0001,13.277 4.2241,13.501 4.5001,13.501 L5.0001,13.501 L5.0001,15 C5.0001,15.276 5.2241,15.5 5.5001,15.5 L6.0001,15.5 L6.0001,22.5 L5.5001,22.5 C5.2241,22.5 5.0001,22.724 5.0001,23 L5.0001,24.5 L2.5001,24.5 C2.2241,24.5 2.0001,24.724 2.0001,25 L2.0001,28 C2.0001,28.276 2.2241,28.5 2.5001,28.5 L27.5001,28.5 C27.7761,28.5 28.0001,28.276 28.0001,28 L28.0001,25 C28.0001,24.724 27.7761,24.5 27.5001,24.5 L25.0001,24.5 L25.0001,23 C25.0001,22.724 24.7761,22.5 24.5001,22.5 L24.0001,22.5 L24.0001,15.5 L24.5001,15.5 C24.7761,15.5 25.0001,15.276 25.0001,15 L25.0001,13.501 L25.5001,13.501 C25.7761,13.501 26.0001,13.277 26.0001,13.001 L26.0001,11.5 L28.8681,11.5 C29.3871,11.5 29.5371,11.198 29.5781,11.068 C29.6191,10.937 29.6681,10.601 29.2371,10.301 L29.2371,10.301 Z" id="Fill-119" fill="#72778A"></path>
            </g>
            <g id="ic_games" transform="translate(249.000000, 7.000000)">
                <path d="M18.9155,1.5 L6.9465,13.469 L6.9465,13.469 C7.3085,13.876 7.6905,14.263 8.0915,14.63 C8.0995,14.638 8.1085,14.645 8.1165,14.653 C8.5155,15.016 8.9315,15.359 9.3665,15.678 L9.3665,18.5 L12.6995,18.5 L12.6995,15.642 C13.3825,15.137 14.0205,14.573 14.6115,13.963 C17.1165,11.376 18.7365,7.908 18.9675,4.059 C18.9865,3.743 18.9965,3.424 18.9965,3.102 C18.9965,2.561 18.9685,2.027 18.9155,1.5" id="Fill-120" fill="#E4B673"></path>
                <path d="M3.7101,7.7179 C4.3791,9.8719 5.4881,11.8299 6.9471,13.4689 L18.9151,1.4999 L9.9281,1.4999 L3.7101,7.7179 Z" id="Fill-121" fill="#FFCF88"></path>
                <path d="M9.928,1.5 L3.073,1.5 C3.022,2.015 2.996,2.537 2.996,3.065 C2.996,4.688 3.252,6.247 3.712,7.716 L9.928,1.5 Z" id="Fill-122" fill="#FFDEAC"></path>
                <path d="M15.4934,21 L6.4994,21 C5.3894,21 4.4964,21.896 4.4964,23.001 L4.4964,24 L17.4964,24 L17.4964,23.001 C17.4964,21.896 16.5994,21 15.4934,21" id="Fill-123" fill="#CEA1A8"></path>
                <polygon id="Fill-124" fill="#AF7C86" points="4.496 26 17.496 26 17.496 24 4.496 24"></polygon>
                <path d="M7.9341,21 C7.6921,21 7.4961,20.866 7.4961,20.693 L7.4961,18.806 C7.4961,18.637 7.6981,18.5 7.9341,18.5 L14.0581,18.5 C14.3001,18.5 14.4961,18.634 14.4961,18.806 L14.4961,20.693 C14.4961,20.863 14.2941,21 14.0581,21 L7.9341,21 Z" id="Fill-125" fill="#CFA1A8"></path>
                <path d="M18.3789,12.0825 C17.5679,12.6775 16.7049,13.0265 15.9269,13.2285 C15.9399,13.2135 15.9509,13.1965 15.9629,13.1795 L15.9629,13.1805 C17.8539,10.8185 19.0329,7.9605 19.3769,4.9435 C19.3789,4.9475 19.3819,4.9495 19.3839,4.9535 C19.3949,4.8785 19.4079,4.8035 19.4149,4.7275 C19.8229,4.9225 20.1529,5.2425 20.3989,5.6845 C21.4479,7.5785 20.5239,10.5075 18.3789,12.0825 L18.3789,12.0825 Z M14.2519,13.6155 C13.6719,14.2145 13.0489,14.7615 12.4009,15.2405 C12.2749,15.3345 12.1989,15.4845 12.1989,15.6425 L12.1989,17.9995 L9.8669,17.9995 L9.8669,15.6785 C9.8669,15.5195 9.7909,15.3695 9.6629,15.2755 C5.8019,12.4465 3.4959,7.8815 3.4959,3.0645 C3.4959,2.7115 3.5089,2.3545 3.5329,1.9995 L18.4569,1.9995 C18.4829,2.3655 18.4959,2.7345 18.4959,3.1025 C18.4959,3.4135 18.4859,3.7235 18.4689,4.0295 C18.2519,7.6255 16.7549,11.0295 14.2519,13.6155 L14.2519,13.6155 Z M13.9959,20.4995 L7.9959,20.4995 L7.9959,18.9995 L13.9959,19.0045 L13.9959,20.4995 Z M16.9959,23.0005 L16.9959,25.4995 L4.9959,25.4995 L4.9959,23.0005 C4.9959,22.1735 5.6699,21.4995 6.4989,21.4995 L7.9339,21.4995 L14.0589,21.4995 L15.4929,21.4995 C16.3219,21.4995 16.9959,22.1735 16.9959,23.0005 L16.9959,23.0005 Z M6.0699,13.2285 C5.2919,13.0265 4.4289,12.6775 3.6179,12.0825 C1.4739,10.5075 0.5489,7.5785 1.5989,5.6845 C1.8439,5.2425 2.1739,4.9225 2.5819,4.7275 C2.5859,4.7685 2.5929,4.8095 2.5989,4.8505 C2.5989,4.8495 2.5999,4.8485 2.6009,4.8485 C2.9429,7.9245 4.1659,10.8275 6.0829,13.2105 C6.0729,13.2055 6.0589,13.2055 6.0499,13.2005 C6.0569,13.2095 6.0629,13.2195 6.0699,13.2285 L6.0699,13.2285 Z M21.2739,5.2005 L21.2739,5.1995 C20.8599,4.4545 20.2369,3.9555 19.4779,3.7025 C19.4859,3.5025 19.4959,3.3035 19.4959,3.1025 C19.4959,2.5495 19.4679,1.9935 19.4119,1.4495 C19.3869,1.1945 19.1719,0.9995 18.9149,0.9995 L3.0729,0.9995 C2.8159,0.9995 2.6009,1.1945 2.5749,1.4505 C2.5229,1.9855 2.4959,2.5285 2.4959,3.0645 C2.4959,3.2785 2.5249,3.4885 2.5329,3.7015 C1.7679,3.9525 1.1399,4.4495 0.7239,5.1995 L0.7239,5.2005 C-0.5791,7.5505 0.4539,10.9995 3.0259,12.8885 C4.4839,13.9575 6.0719,14.3255 7.1959,14.4445 C7.7199,14.9715 8.2689,15.4765 8.8669,15.9295 L8.8669,17.9995 L7.9339,17.9995 C7.4079,17.9995 6.9959,18.3545 6.9959,18.8065 L6.9959,20.4995 L6.4989,20.4995 C5.1189,20.4995 3.9959,21.6225 3.9959,23.0005 L3.9959,25.9995 C3.9959,26.2765 4.2199,26.4995 4.4959,26.4995 L17.4959,26.4995 C17.7729,26.4995 17.9959,26.2765 17.9959,25.9995 L17.9959,23.0005 C17.9959,21.6225 16.8729,20.4995 15.4929,20.4995 L14.9959,20.4995 L14.9959,18.8065 C14.9959,18.3545 14.5839,17.9995 14.0589,17.9995 L13.1989,17.9995 L13.1989,15.8915 C13.7689,15.4555 14.3159,14.9645 14.8349,14.4405 C15.9579,14.3185 17.5279,13.9475 18.9709,12.8885 C21.5429,10.9995 22.5759,7.5505 21.2739,5.2005 L21.2739,5.2005 Z" id="Fill-126" fill="#72778A"></path>
            </g>
            <g id="ic_finance" transform="translate(288.000000, 6.000000)">
                <polygon id="Fill-131" fill="#B08B91" points="18 22.755 23.499 22.755 23.499 5.245 18 5.245"></polygon>
                <polygon id="Fill-132" fill="#D5B1B7" points="6 22.755 17.999 22.755 17.999 5.245 6 5.245"></polygon>
                <polygon id="Fill-133" fill="#E7D1D4" points="0.502 22.755 6.001 22.755 6.001 5.245 0.502 5.245"></polygon>
                <polygon id="Fill-134" fill="#D4B1B7" points="4 17.75 8.002 17.75 8.002 15.745 4 15.745"></polygon>
                <polygon id="Fill-135" fill="#D4B1B7" points="15.999 17.75 20.001 17.75 20.001 15.745 15.999 15.745"></polygon>
                <path d="M22.999,15.465 L20.501,16.104 L20.501,15.745 C20.501,15.469 20.277,15.245 20.001,15.245 L18.499,15.245 L18.499,5.745 L22.999,5.745 L22.999,15.465 Z M22.999,22.255 L18.499,22.255 L18.499,18.25 L20.001,18.25 C20.277,18.25 20.501,18.026 20.501,17.75 L20.501,17.136 L22.999,16.497 L22.999,22.255 Z M6.499,22.255 L6.499,18.25 L8.002,18.25 C8.278,18.25 8.502,18.026 8.502,17.75 L8.502,17.247 L15.498,17.247 L15.498,17.75 C15.498,18.026 15.722,18.25 15.998,18.25 L17.499,18.25 L17.499,22.255 L6.499,22.255 Z M1.001,22.255 L1.001,16.497 L3.499,17.136 L3.499,17.75 C3.499,18.026 3.723,18.25 3.999,18.25 L5.499,18.25 L5.499,22.255 L1.001,22.255 Z M1.001,5.745 L5.499,5.745 L5.499,15.245 L3.999,15.245 C3.723,15.245 3.499,15.469 3.499,15.745 L3.499,16.104 L1.001,15.465 L1.001,5.745 Z M4.499,17.25 L4.499,16.245 L7.502,16.245 L7.502,16.733 C7.502,16.738 7.499,16.742 7.499,16.747 C7.499,16.752 7.502,16.756 7.502,16.762 L7.502,17.25 L4.499,17.25 Z M16.498,17.25 L16.498,16.752 C16.498,16.75 16.499,16.749 16.499,16.747 C16.499,16.745 16.498,16.744 16.498,16.742 L16.498,16.245 L19.501,16.245 L19.501,17.25 L16.498,17.25 Z M9.003,5.745 L14.996,5.745 L17.499,5.745 L17.499,15.245 L15.998,15.245 C15.722,15.245 15.498,15.469 15.498,15.745 L15.498,16.247 L8.502,16.247 L8.502,15.745 C8.502,15.469 8.278,15.245 8.002,15.245 L6.499,15.245 L6.499,5.745 L9.003,5.745 Z M9,1.735 L9.003,1.745 L15,1.735 L14.996,4.745 L9,4.745 L9,1.735 Z M23.499,4.745 L16,4.745 L16,1.735 C16,1.189 15.55,0.745 14.996,0.745 L9.003,0.745 C8.45,0.745 8,1.189 8,1.735 L8,4.745 L0.501,4.745 C0.225,4.745 0.001,4.968 0.001,5.245 L0.001,22.755 C0.001,23.031 0.225,23.255 0.501,23.255 L23.499,23.255 C23.775,23.255 23.999,23.031 23.999,22.755 L23.999,5.245 C23.999,4.968 23.775,4.745 23.499,4.745 L23.499,4.745 Z" id="Fill-136" fill="#72778A"></path>
            </g>
            <g id="ic_charity" transform="translate(326.000000, 8.000000)">
                <path d="M11.9436,3.2938 L14.0006,5.3508 L22.2916,13.6418 C22.6896,14.0398 22.6836,14.6658 22.2946,15.0558 L14.7096,22.6418 C14.6636,22.6878 14.6066,22.7098 14.5546,22.7448 C14.1686,23.0078 13.6376,22.9878 13.2916,22.6418 L5.7066,15.0568 L2.9436,12.2938 C0.4616,9.8118 0.4586,5.7798 2.9436,3.2938 C5.4246,0.8138 9.4586,0.8088 11.9436,3.2938" id="Fill-137" fill="#E9A2B7"></path>
                <path d="M24.7031,11.9399 L22.9391,13.7049 C22.8681,13.5539 22.7691,13.4129 22.6451,13.2879 L14.7071,5.3499 L16.4101,3.6469 C18.6971,1.3619 22.4181,1.3609 24.7031,3.6479 C25.8081,4.7529 26.4181,6.2249 26.4191,7.7929 C26.4191,9.3599 25.8101,10.8329 24.7031,11.9399 L24.7031,11.9399 Z M14.0001,6.0579 L15.6881,7.7449 L13.2881,10.1449 C13.0631,10.3699 12.7641,10.4939 12.4441,10.4939 C12.1251,10.4939 11.8261,10.3699 11.6001,10.1449 C11.3761,9.9199 11.2521,9.6209 11.2521,9.3009 C11.2521,8.9819 11.3751,8.6829 11.6001,8.4579 L14.0001,6.0579 Z M15.4471,12.0039 L20.0431,16.5999 L18.4991,18.1429 L13.9041,13.5469 C13.7091,13.3519 13.3921,13.3519 13.1971,13.5469 C13.0021,13.7419 13.0021,14.0589 13.1971,14.2539 L17.7921,18.8489 L16.2481,20.3919 L11.6541,15.7969 C11.4591,15.6019 11.1421,15.6019 10.9471,15.7969 C10.7521,15.9919 10.7521,16.3089 10.9471,16.5039 L15.5411,21.0989 L14.3631,22.2749 L14.2731,22.3309 C14.0671,22.4699 13.8111,22.4529 13.6451,22.2879 L3.2971,11.9399 C1.0111,9.6539 1.0121,5.9339 3.2981,3.6479 C4.4031,2.5419 5.8751,1.9329 7.4421,1.9319 L7.4451,1.9319 C9.0121,1.9319 10.4841,2.5409 11.5901,3.6479 L13.2931,5.3509 L10.8931,7.7509 C10.0381,8.6059 10.0381,9.9969 10.8931,10.8519 C11.7491,11.7079 13.1401,11.7079 13.9951,10.8519 L16.3941,8.4519 L21.9381,13.9949 C22.0371,14.0949 22.0871,14.2219 22.0881,14.3489 C22.0881,14.4759 22.0391,14.6039 21.9411,14.7029 L20.7501,15.8939 L16.1541,11.2969 C15.9591,11.1019 15.6421,11.1019 15.4471,11.2969 C15.2521,11.4929 15.2521,11.8089 15.4471,12.0039 L15.4471,12.0039 Z M25.4101,2.9399 C22.7341,0.2639 18.3791,0.2639 15.7031,2.9399 L14.0001,4.6429 L12.2971,2.9399 C11.0021,1.6449 9.2791,0.9319 7.4451,0.9319 L7.4411,0.9319 C5.6071,0.9329 3.8851,1.6469 2.5911,2.9409 C-0.0859,5.6169 -0.0859,9.9709 2.5901,12.6479 L12.9371,22.9949 C13.2181,23.2749 13.5911,23.4209 13.9741,23.4209 C14.2761,23.4209 14.5841,23.3309 14.8571,23.1459 C14.9051,23.1179 14.9851,23.0729 15.0621,22.9949 L22.6481,15.4099 L22.6491,15.4089 L25.4101,12.6469 C26.7061,11.3509 27.4201,9.6269 27.4191,7.7919 C27.4181,5.9579 26.7051,4.2349 25.4101,2.9399 L25.4101,2.9399 Z" id="Fill-138" fill="#72778A"></path>
                <path d="M12.4443,10.4941 C12.7633,10.4941 13.0633,10.3701 13.2883,10.1451 L16.3943,7.0381 L22.6453,13.2881 C22.7693,13.4131 22.8683,13.5541 22.9393,13.7051 L24.7033,11.9401 C25.8103,10.8331 26.4193,9.3601 26.4193,7.7921 C26.4183,6.2251 25.8083,4.7531 24.7033,3.6471 C22.4183,1.3611 18.6973,1.3621 16.4103,3.6471 L11.6003,8.4571 C11.3753,8.6821 11.2523,8.9821 11.2523,9.3011 C11.2523,9.6201 11.3763,9.9201 11.6003,10.1451 C11.8263,10.3701 12.1253,10.4941 12.4443,10.4941" id="Fill-139" fill="#F7B6C9"></path>
            </g>
        </g>
    </g>
</svg>